<svg width="132" height="12" viewBox="0 0 132 12" fill="none" xmlns="http://www.w3.org/2000/svg">
<path d="M2 8.50062C6.79509 6.50924 11.6971 4.33528 16.9726 2.93157C17.4949 2.79257 23.0833 1.19476 21.8497 2.52654C20.2071 4.29982 16.8891 5.77849 16.0346 7.82558C15.768 8.46441 17.6928 8.24246 18.0895 8.16873C20.8035 7.66436 23.3972 6.59608 25.9424 5.81172C29.8654 4.60278 33.6328 3.19813 38.1098 3.34221C40.1013 3.4063 36.0633 6.97164 35.6797 7.36431C35.1273 7.92982 34.2667 8.82903 34.5883 9.5413C35.1052 10.6861 39.0434 9.3549 39.8918 9.13065C43.0875 8.28601 46.0944 7.17359 49.288 6.32363C52.7002 5.4155 56.3566 3.96662 60.0655 3.71348C64.1206 3.43673 62.3493 5.86141 61.8732 7.47681C61.509 8.71248 62.327 8.89989 64.1242 8.61313C66.5414 8.22741 68.734 7.25167 70.988 6.58801C73.2906 5.91005 75.8988 5.10261 78.3805 4.77667C80.1233 4.54777 81.4503 4.65573 82.1748 5.77797C82.542 6.34678 82.6187 7.14593 83.5646 7.46556C85.5644 8.14131 88.8626 6.91058 90.6587 6.41926C92.2985 5.97067 94.315 5.41481 96.1412 5.64859C97.7353 5.85265 97.886 6.6569 98.6565 7.43181C99.6127 8.39345 101.726 8.24393 103.176 7.96059C106.095 7.38989 108.726 6.30421 111.685 5.80047C113.411 5.50669 114.728 5.52653 116.153 6.2505C117.283 6.82465 118.067 7.05313 119.521 6.86366C121.355 6.62463 123.308 6.05897 125.208 6.21674C126.845 6.35272 128.44 7.13013 130 7.48806" stroke="url(#paint0_linear_208_603)" stroke-width="3" stroke-linecap="round"/>
<defs>
<linearGradient id="paint0_linear_208_603" x1="2" y1="2" x2="5.7664" y2="27.9859" gradientUnits="userSpaceOnUse">
<stop stop-color="#00C2FF"/>
<stop offset="1" stop-color="#9E00FF"/>
</linearGradient>
</defs>
</svg>
