<svg width="32" height="24" viewBox="0 0 32 24" fill="none" xmlns="http://www.w3.org/2000/svg">
<path d="M27.107 2.00999C25.0356 1.071 22.8208 0.388577 20.5052 0C20.2208 0.498142 19.8886 1.16815 19.6595 1.70115C17.198 1.34249 14.7591 1.34249 12.3429 1.70115C12.1139 1.16815 11.7741 0.498142 11.4871 0C9.16908 0.388577 6.95167 1.07351 4.88026 2.01497C0.70219 8.13203 -0.430415 14.0972 0.135889 19.9776C2.907 21.9826 5.59255 23.2005 8.23277 23.9975C8.88465 23.1283 9.46605 22.2042 9.9669 21.2304C9.013 20.8792 8.09937 20.4459 7.2361 19.9427C7.46512 19.7784 7.68914 19.6065 7.90557 19.4296C13.1709 21.8157 18.8919 21.8157 24.0943 19.4296C24.3133 19.6065 24.5373 19.7784 24.7638 19.9427C23.898 20.4483 22.9818 20.8817 22.0279 21.2329C22.5288 22.2042 23.1077 23.1308 23.7621 24C26.4048 23.203 29.0929 21.9851 31.864 19.9776C32.5285 13.1607 30.7289 7.25033 27.107 2.00999ZM10.6842 16.3612C9.10363 16.3612 7.8074 14.9315 7.8074 13.1906C7.8074 11.4496 9.07595 10.0175 10.6842 10.0175C12.2926 10.0175 13.5887 11.4471 13.5611 13.1906C13.5636 14.9315 12.2926 16.3612 10.6842 16.3612ZM21.3157 16.3612C19.735 16.3612 18.4388 14.9315 18.4388 13.1906C18.4388 11.4496 19.7073 10.0175 21.3157 10.0175C22.9239 10.0175 24.2202 11.4471 24.1925 13.1906C24.1925 14.9315 22.9239 16.3612 21.3157 16.3612Z" fill="black"/>
</svg>
