<svg width="32" height="26" viewBox="0 0 32 26" fill="none" xmlns="http://www.w3.org/2000/svg">
<g clip-path="url(#clip0_411_2)">
<path d="M28.6387 6.53698C28.6581 6.81354 28.6581 7.09011 28.6581 7.36923C28.6581 15.874 22.1032 25.6827 10.1174 25.6827V25.6776C6.57677 25.6827 3.10967 24.6809 0.129028 22.7921C0.643867 22.8532 1.16129 22.8838 1.68 22.8851C4.61419 22.8877 7.46451 21.9152 9.7729 20.1245C6.98451 20.0723 4.53935 18.2765 3.68516 15.6548C4.66193 15.8409 5.66838 15.8027 6.62709 15.5439C3.58709 14.9373 1.4 12.299 1.4 9.23511C1.4 9.20707 1.4 9.18031 1.4 9.15354C2.3058 9.65188 3.32 9.92845 4.35742 9.95903C1.49419 8.06894 0.611609 4.30658 2.34064 1.36501C5.64903 5.38609 10.5303 7.8306 15.7703 8.08933C15.2452 5.85384 15.9626 3.51129 17.6555 1.93982C20.28 -0.497044 24.4077 -0.372142 26.8748 2.21894C28.3342 1.93472 29.7329 1.4058 31.0129 0.656387C30.5264 2.14629 29.5084 3.41188 28.1484 4.21609C29.44 4.0657 30.7019 3.72413 31.8903 3.20286C31.0155 4.49776 29.9135 5.6257 28.6387 6.53698Z" fill="black"/>
</g>
<defs>
<clipPath id="clip0_411_2">
<rect width="32" height="26" fill="white"/>
</clipPath>
</defs>
</svg>
